<svg width="24" height="24" viewBox="0 0 24 24" fill="none" xmlns="http://www.w3.org/2000/svg">
  <rect width="24" height="24" rx="4" fill="#2C74B3"/>
  <path d="M7 14.5C7 15.8807 5.88071 17 4.5 17C3.11929 17 2 15.8807 2 14.5C2 13.1193 3.11929 12 4.5 12C5.88071 12 7 13.1193 7 14.5Z" fill="#57C5B6"/>
  <path d="M15 9.5C15 10.8807 13.8807 12 12.5 12C11.1193 12 10 10.8807 10 9.5C10 8.11929 11.1193 7 12.5 7C13.8807 7 15 8.11929 15 9.5Z" fill="#57C5B6"/>
  <path d="M22 14.5C22 15.8807 20.8807 17 19.5 17C18.1193 17 17 15.8807 17 14.5C17 13.1193 18.1193 12 19.5 12C20.8807 12 22 13.1193 22 14.5Z" fill="#57C5B6"/>
  <path d="M4.5 12V7" stroke="white" stroke-width="1.5" stroke-linecap="round"/>
  <path d="M12.5 7V4" stroke="white" stroke-width="1.5" stroke-linecap="round"/>
  <path d="M19.5 12V4" stroke="white" stroke-width="1.5" stroke-linecap="round"/>
  <path d="M5 9.5H12" stroke="white" stroke-width="1.5" stroke-linecap="round"/>
  <path d="M13 14.5H19" stroke="white" stroke-width="1.5" stroke-linecap="round"/>
  <path d="M4.5 17V20" stroke="white" stroke-width="1.5" stroke-linecap="round"/>
  <path d="M12.5 12V20" stroke="white" stroke-width="1.5" stroke-linecap="round"/>
  <path d="M19.5 17V20" stroke="white" stroke-width="1.5" stroke-linecap="round"/>
</svg>